<svg width="1948" height="1855" viewBox="0 0 1948 1855" fill="none" xmlns="http://www.w3.org/2000/svg">
<g filter="url(#filter0_d_113_15)">
<path fill-rule="evenodd" clip-rule="evenodd" d="M951.057 1381.97V0L726.543 690.983H0.000610352L587.786 1118.03L363.272 1809.02L951.057 1381.97Z" fill="#991B1B"/>
<path fill-rule="evenodd" clip-rule="evenodd" d="M951 1381.97V0L1175.51 690.983H1902.06L1314.27 1118.03L1538.79 1809.02L951 1381.97Z" fill="#1E40AF"/>
</g>
<path d="M600.231 718.382V796.545H662.931L663.369 773.9L663.808 751.254L686.169 773.607L708.531 795.96L685.731 818.752C673.308 831.316 663.077 842.128 663.077 842.858C663.077 843.442 673.454 854.4 686.169 867.11L709.116 890.048L732.5 866.672L755.885 843.296L763.339 850.747L770.939 858.198L761.292 872.37C721.392 930.955 711.454 1004.3 733.962 1072.09C759.539 1148.93 824.431 1206.79 904.669 1223.88L915.923 1226.37V1306.43H825.308V1376.55H915.923V1458.37H986.077V1376.55H1076.69V1306.43H986.077V1226.37L1000.4 1223.15C1129.45 1193.64 1207.5 1062.3 1170.96 936.069C1164.09 912.693 1150.35 884.642 1136.62 865.942L1131.06 858.344L1184.99 804.434L1238.92 750.524V850.601H1301.77V640.22H1091.31V703.042H1191.42L1136.76 757.683L1082.1 812.323L1072.02 805.749C1051.7 792.6 1024.52 781.497 999.231 775.945C941.792 763.527 878.069 774.63 829.985 805.749L819.754 812.323L811.569 803.996L803.385 795.814L826.769 772.439L850.154 749.063L827.208 726.126C814.492 713.415 803.531 703.042 802.654 703.042C801.923 703.042 790.962 713.269 778.539 725.687L755.885 748.332L733.231 725.687L710.577 703.042H756.616V640.22H600.231V718.382ZM992.654 840.959C1055.65 857.468 1104.17 912.255 1113.08 976.83C1122.58 1045.35 1086.34 1113.58 1023.35 1145.43C1014.58 1149.66 992.216 1157.41 988.123 1157.41C986.516 1157.41 986.077 1154.63 986.077 1142.8C986.077 1130.82 986.516 1128.19 988.269 1128.19C989.439 1128.19 997.331 1124.68 1005.52 1120.44C1048.05 1098.38 1076.84 1066.39 1082.68 1034.54C1084.88 1022.12 1083.56 1013.65 1077.72 1003.86C1070.85 992.463 1061.64 987.934 1045.12 987.934C1038.4 987.934 1026.42 988.956 1018.52 990.271C997.916 993.631 978.185 992.609 969.854 987.495C966.346 985.45 962.108 981.797 960.5 979.314C958.162 975.807 956.554 974.785 952.9 974.785C943.546 974.785 937.116 985.304 937.262 1000.35C937.262 1014.96 942.962 1023.87 956.116 1030.74C964.3 1034.83 980.523 1035.85 990.169 1032.64C994.408 1031.18 999.231 1030.3 1000.98 1030.59C1006.1 1031.32 1005.22 1036.15 999.231 1040.24C994.554 1043.45 992.946 1043.74 980.669 1043.16C967.516 1042.57 966.931 1042.43 947.639 1032.93C926.3 1022.27 917.239 1019.34 902.623 1017.88C868.131 1014.52 845.769 1033.95 845.769 1067.41C845.769 1092.1 855.854 1108.46 877.193 1117.96C886.546 1122.2 904.085 1126.73 911.392 1126.73H915.923V1142.07C915.923 1160.04 916.508 1159.6 898.969 1153.76C875.292 1145.87 854.831 1133.01 836.123 1114.45C764.216 1043.01 773.277 926.865 855.416 866.526C873.1 853.377 894.731 843.881 918.116 838.913C937.7 834.676 972.339 835.553 992.654 840.959Z" fill="black"/>
<path d="M967.37 864.773C964.593 865.941 959.916 875.876 957.577 886.249C954.07 901.151 951.877 938.406 953.923 949.802C956.116 962.951 960.939 970.84 969.416 974.785C984.908 982.382 997.477 972.009 1006.39 943.958C1013.7 921.313 1016.18 891.509 1011.65 882.597C1005.66 871.055 978.623 860.244 967.37 864.773ZM922.793 870.178C906.862 876.753 897.508 885.08 892.1 897.353C889.616 903.05 889.323 905.68 890.2 920.436C891.808 948.779 897.946 971.132 906.423 979.46C912.123 985.158 920.162 985.596 925.423 980.629C939.746 967.188 954.362 892.385 946.177 875.292C943.546 870.032 938.577 866.672 933.754 866.672C932.439 866.672 927.47 868.279 922.793 870.178ZM1030.8 887.856C1024.52 894.285 1016.33 930.517 1016.18 953.747C1016.04 967.772 1016.18 968.649 1020.28 973.908C1025.25 980.629 1032.26 985.012 1037.52 985.012C1040.59 985.012 1042.49 983.551 1046 978.437C1054.33 966.311 1062.81 944.25 1064.42 930.371C1065.88 917.66 1056.52 898.96 1044.25 889.902C1037.52 885.226 1034.16 884.642 1030.8 887.856ZM860.97 909.04C851.47 911.232 840.07 920.582 837.147 928.472C833.493 937.968 836.27 961.928 842.847 979.606C851.323 1002.11 867.108 1015.55 879.093 1010.58C885.231 1007.95 886.693 1001.81 886.693 978.437C886.693 947.026 882.308 918.975 876.17 911.232C873.246 907.433 869.593 906.849 860.97 909.04Z" fill="black"/>
<defs>
<filter id="filter0_d_113_15" x="0.000488281" y="0" width="1947.06" height="1854.02" filterUnits="userSpaceOnUse" color-interpolation-filters="sRGB">
<feFlood flood-opacity="0" result="BackgroundImageFix"/>
<feColorMatrix in="SourceAlpha" type="matrix" values="0 0 0 0 0 0 0 0 0 0 0 0 0 0 0 0 0 0 127 0" result="hardAlpha"/>
<feOffset dx="25" dy="25"/>
<feGaussianBlur stdDeviation="10"/>
<feComposite in2="hardAlpha" operator="out"/>
<feColorMatrix type="matrix" values="0 0 0 0 0 0 0 0 0 0 0 0 0 0 0 0 0 0 0.25 0"/>
<feBlend mode="normal" in2="BackgroundImageFix" result="effect1_dropShadow_113_15"/>
<feBlend mode="normal" in="SourceGraphic" in2="effect1_dropShadow_113_15" result="shape"/>
</filter>
</defs>
</svg>
