<svg width="1903" height="1810" viewBox="0 0 1903 1810" fill="none" xmlns="http://www.w3.org/2000/svg">
<path fill-rule="evenodd" clip-rule="evenodd" d="M951.057 1381.97V0L726.543 690.983H0.00012207L587.785 1118.03L363.271 1809.02L951.057 1381.97Z" fill="#B91C1C"/>
<path fill-rule="evenodd" clip-rule="evenodd" d="M951 1381.97V0L1175.51 690.983H1902.06L1314.27 1118.03L1538.79 1809.02L951 1381.97Z" fill="#4338CA"/>
<path d="M605.769 722.65V799.552H667.479L667.911 777.272L668.342 754.992L690.351 776.984L712.359 798.977L689.919 821.401C677.692 833.762 667.623 844.399 667.623 845.118C667.623 845.693 677.836 856.474 690.351 868.979L712.935 891.547L735.95 868.548L758.965 845.549L766.302 852.88L773.782 860.211L764.288 874.154C725.018 931.794 715.236 1003.95 737.389 1070.65C762.562 1146.26 826.429 1203.18 905.401 1220L916.477 1222.44V1301.21H827.292V1370.21H916.477V1450.7H985.523V1370.21H1074.71V1301.21H985.523V1222.44L999.62 1219.28C1126.64 1190.24 1203.45 1061.02 1167.49 936.825C1160.73 913.826 1147.21 886.228 1133.68 867.829L1128.22 860.355L1181.3 807.314L1234.38 754.273V852.736H1296.23V645.748H1089.09V707.557H1187.63L1133.83 761.317L1080.03 815.076L1070.1 808.608C1050.11 795.671 1023.35 784.746 998.469 779.284C941.938 767.066 879.221 777.991 831.895 808.608L821.826 815.076L813.771 806.883L805.715 798.833L828.731 775.835L851.746 752.836L829.162 730.268C816.648 717.763 805.859 707.557 804.996 707.557C804.277 707.557 793.489 717.619 781.262 729.837L758.965 752.117L736.669 729.837L714.373 707.557H759.685V645.748H605.769V722.65ZM991.996 843.249C1053.99 859.492 1101.75 913.395 1110.53 976.929C1119.88 1044.34 1084.2 1111.47 1022.2 1142.81C1013.57 1146.98 991.565 1154.59 987.537 1154.59C985.955 1154.59 985.523 1151.86 985.523 1140.22C985.523 1128.43 985.955 1125.85 987.681 1125.85C988.832 1125.85 996.599 1122.4 1004.65 1118.23C1046.51 1096.52 1074.85 1065.04 1080.61 1033.71C1082.76 1021.49 1081.47 1013.15 1075.71 1003.52C1068.95 992.309 1059.89 987.853 1043.64 987.853C1037.02 987.853 1025.22 988.86 1017.46 990.153C997.175 993.459 977.755 992.453 969.556 987.422C966.104 985.41 961.932 981.816 960.35 979.373C958.049 975.923 956.466 974.917 952.87 974.917C943.664 974.917 937.335 985.266 937.479 1000.07C937.479 1014.45 943.089 1023.21 956.035 1029.97C964.09 1033.99 980.057 1035 989.551 1031.84C993.722 1030.4 998.469 1029.54 1000.2 1029.83C1005.23 1030.54 1004.37 1035.29 998.469 1039.31C993.866 1042.48 992.284 1042.76 980.201 1042.19C967.255 1041.61 966.679 1041.47 947.692 1032.13C926.69 1021.63 917.772 1018.76 903.387 1017.32C869.439 1014.01 847.431 1033.13 847.431 1066.05C847.431 1090.34 857.356 1106.44 878.358 1115.78C887.564 1119.95 904.825 1124.41 912.018 1124.41H916.477V1139.5C916.477 1157.18 917.052 1156.75 899.791 1151C876.488 1143.24 856.349 1130.59 837.937 1112.33C767.165 1042.04 776.083 927.769 856.925 868.404C874.33 855.467 895.619 846.124 918.635 841.237C937.91 837.068 972.002 837.931 991.996 843.249V843.249Z" fill="black"/>
<path d="M967.111 866.679C964.378 867.829 959.775 877.604 957.473 887.809C954.021 902.471 951.863 939.125 953.877 950.337C956.035 963.274 960.782 971.036 969.125 974.917C984.372 982.391 996.743 972.186 1005.52 944.587C1012.71 922.307 1015.16 892.984 1010.7 884.216C1004.8 872.86 978.187 862.223 967.111 866.679V866.679ZM923.238 871.998C907.558 878.466 898.352 886.659 893.03 898.734C890.585 904.34 890.297 906.927 891.16 921.445C892.742 949.331 898.784 971.323 907.127 979.516C912.737 985.122 920.648 985.554 925.827 980.666C939.924 967.442 954.308 893.846 946.253 877.029C943.664 871.854 938.773 868.548 934.026 868.548C932.732 868.548 927.841 870.129 923.238 871.998V871.998ZM1029.54 889.39C1023.35 895.715 1015.3 931.363 1015.16 954.218C1015.01 968.017 1015.16 968.879 1019.18 974.054C1024.07 980.666 1030.98 984.979 1036.16 984.979C1039.18 984.979 1041.05 983.541 1044.5 978.51C1052.7 966.58 1061.04 944.875 1062.62 931.219C1064.06 918.714 1054.86 900.315 1042.77 891.403C1036.16 886.803 1032.85 886.228 1029.54 889.39V889.39ZM862.391 910.233C853.041 912.389 841.821 921.589 838.944 929.351C835.348 938.694 838.081 962.267 844.554 979.66C852.897 1001.8 868.432 1015.02 880.228 1010.13C886.269 1007.55 887.708 1001.51 887.708 978.51C887.708 947.606 883.392 920.007 877.351 912.389C874.474 908.652 870.878 908.077 862.391 910.233Z" fill="black"/>
</svg>
